<svg width="70" height="70" viewBox="0 0 70 70" fill="none" xmlns="http://www.w3.org/2000/svg">
<circle cx="35" cy="35" r="35" fill="#474161"/>
<path d="M54.8939 27.4663C54.8025 25.394 54.4674 23.9694 53.9874 22.7349C53.4921 21.4245 52.7303 20.2513 51.7321 19.2761C50.7568 18.2856 49.5759 17.516 48.2807 17.0285C47.0391 16.5485 45.6219 16.2134 43.5496 16.122C41.4619 16.0229 40.7991 16 35.5041 16C30.209 16 29.5463 16.0229 27.4663 16.1143C25.394 16.2056 23.9694 16.5411 22.7352 17.0208C21.4245 17.516 20.2513 18.2779 19.2761 19.2761C18.2856 20.2513 17.5163 21.4323 17.0285 22.7274C16.5485 23.9694 16.2134 25.3863 16.122 27.4585C16.0229 29.5463 16 30.209 16 35.5041C16 40.7991 16.0229 41.4619 16.1143 43.5419C16.2056 45.6141 16.5411 47.0388 17.0211 48.2733C17.5163 49.5836 18.2856 50.7568 19.2761 51.7321C20.2513 52.7225 21.4323 53.4921 22.7274 53.9796C23.9694 54.4597 25.3863 54.7948 27.4588 54.8861C29.5385 54.9778 30.2016 55.0004 35.4966 55.0004C40.7917 55.0004 41.4545 54.9778 43.5345 54.8861C45.6067 54.7948 47.0314 54.4597 48.2655 53.9796C50.8866 52.9663 52.9588 50.894 53.9722 48.2733C54.4519 47.0314 54.7873 45.6141 54.8787 43.5419C54.9701 41.4619 54.993 40.7991 54.993 35.5041C54.993 30.209 54.9852 29.5463 54.8939 27.4663ZM51.3818 43.3895C51.2979 45.2942 50.9779 46.3228 50.7113 47.0084C50.056 48.7075 48.7075 50.056 47.0084 50.7113C46.3227 50.9779 45.2868 51.2979 43.3895 51.3815C41.3324 51.4732 40.7155 51.4958 35.5118 51.4958C30.3081 51.4958 29.6834 51.4732 27.6338 51.3815C25.7291 51.2979 24.7006 50.9779 24.0149 50.7113C23.1694 50.3988 22.3998 49.9036 21.7751 49.256C21.1275 48.6236 20.6323 47.8617 20.3198 47.0162C20.0531 46.3305 19.7332 45.2942 19.6496 43.3973C19.5579 41.3402 19.5353 40.7229 19.5353 35.5193C19.5353 30.3156 19.5579 29.6909 19.6496 27.6416C19.7332 25.7369 20.0531 24.7083 20.3198 24.0226C20.6323 23.1768 21.1275 22.4075 21.7828 21.7825C22.415 21.1349 23.1768 20.6397 24.0226 20.3275C24.7083 20.0609 25.7446 19.7409 27.6416 19.657C29.6986 19.5656 30.3159 19.5427 35.5193 19.5427C40.7307 19.5427 41.3476 19.5656 43.3973 19.657C45.302 19.7409 46.3305 20.0609 47.0162 20.3275C47.8617 20.6397 48.6313 21.1349 49.256 21.7825C49.9036 22.415 50.3988 23.1768 50.7113 24.0226C50.9779 24.7083 51.2979 25.7443 51.3818 27.6416C51.4732 29.6986 51.4961 30.3156 51.4961 35.5193C51.4961 40.7229 51.4732 41.3324 51.3818 43.3895Z" fill="white"/>
<path d="M35.505 25.4849C29.974 25.4849 25.4863 29.9722 25.4863 35.5036C25.4863 41.0349 29.974 45.5223 35.505 45.5223C41.0364 45.5223 45.5237 41.0349 45.5237 35.5036C45.5237 29.9722 41.0364 25.4849 35.505 25.4849ZM35.505 42.0024C31.9168 42.0024 29.0061 39.0921 29.0061 35.5036C29.0061 31.915 31.9168 29.0047 35.505 29.0047C39.0936 29.0047 42.0039 31.915 42.0039 35.5036C42.0039 39.0921 39.0936 42.0024 35.505 42.0024Z" fill="white"/>
<path d="M48.2592 25.0889C48.2592 26.3805 47.2119 27.4278 45.92 27.4278C44.6283 27.4278 43.5811 26.3805 43.5811 25.0889C43.5811 23.797 44.6283 22.75 45.92 22.75C47.2119 22.75 48.2592 23.797 48.2592 25.0889Z" fill="white"/>
</svg>
