<svg width="70" height="70" viewBox="0 0 70 70" fill="none" xmlns="http://www.w3.org/2000/svg">
<circle cx="35" cy="35" r="35" fill="#474161"/>
<g clip-path="url(#clip0)">
<path d="M28.2505 48.7422H23.3287V32.8516H28.2505V48.7422ZM28.7416 27.7888C28.7416 26.1977 27.4507 24.9062 25.8605 24.9062C24.2642 24.9062 22.9766 26.1977 22.9766 27.7888C22.9766 29.3804 24.2642 30.6719 25.8605 30.6719C27.4507 30.6719 28.7416 29.3804 28.7416 27.7888ZM46.6719 39.9998C46.6719 35.7341 45.7707 32.5703 40.7876 32.5703C38.3931 32.5703 36.7858 33.7678 36.1297 35.0131H36.125V32.8516H31.3438V48.7422H36.125V40.8524C36.125 38.7861 36.651 36.7844 39.2122 36.7844C41.7385 36.7844 41.8203 39.1473 41.8203 40.9836V48.7422H46.6719V39.9998ZM53 50.7812V23.2188C53 20.8924 51.1076 19 48.7812 19H21.2188C18.8924 19 17 20.8924 17 23.2188V50.7812C17 53.1076 18.8924 55 21.2188 55H48.7812C51.1076 55 53 53.1076 53 50.7812ZM48.7812 21.8125C49.5566 21.8125 50.1875 22.4434 50.1875 23.2188V50.7812C50.1875 51.5566 49.5566 52.1875 48.7812 52.1875H21.2188C20.4434 52.1875 19.8125 51.5566 19.8125 50.7812V23.2188C19.8125 22.4434 20.4434 21.8125 21.2188 21.8125H48.7812Z" fill="white"/>
</g>
<defs>
<clipPath id="clip0">
<rect width="36" height="36" fill="white" transform="translate(17 19)"/>
</clipPath>
</defs>
</svg>
