<svg width="143" height="46" viewBox="0 0 143 46" fill="none" xmlns="http://www.w3.org/2000/svg">
<g clip-path="url(#clip0)">
<g opacity="0.679392">
<path fill-rule="evenodd" clip-rule="evenodd" d="M3.70991 13.3556C3.70991 14.5172 2.76791 15.458 1.60631 15.458C0.444706 15.458 -0.496094 14.5172 -0.496094 13.3556C-0.496094 12.194 0.444706 11.252 1.60631 11.252C2.76791 11.252 3.70991 12.194 3.70991 13.3556ZM101.442 13.3688C101.442 14.5304 100.501 15.4724 99.3391 15.4724C98.1775 15.4724 97.2355 14.5304 97.2355 13.3688C97.2355 12.2072 98.1775 11.2652 99.3391 11.2652C100.501 11.2652 101.442 12.2072 101.442 13.3688ZM19.6495 11.4536H7.03151V15.2576H19.6495V11.4536Z" fill="white"/>
<path fill-rule="evenodd" clip-rule="evenodd" d="M26.2282 19.022V11.4536H30.0046V18.7136H34.4254V21.7676H30.0046V29.8724C29.9686 30.542 30.1942 31.1996 30.6346 31.7072C31.081 32.1488 31.6954 32.378 32.3218 32.336C33.0946 32.3636 33.8518 32.1224 34.465 31.6532L35.5366 34.3328C35.047 34.7144 34.4878 34.9964 33.889 35.1632C33.2254 35.3432 32.5414 35.4332 31.8538 35.4308C30.3346 35.5256 28.8382 35.0204 27.6874 34.0244C26.6434 32.9264 26.1118 31.4372 26.227 29.9252V22.0892L26.2282 19.022ZM23.1466 25.88C23.2882 23.912 22.609 21.9728 21.2722 20.522L21.271 20.4956C19.9282 19.2512 18.1426 18.5996 16.315 18.6872C15.2014 18.6716 14.0962 18.872 13.0594 19.2752C12.1342 19.64 11.3146 20.2292 10.675 20.9912V18.9008H7.03181V35.2964H10.8226V27.032C10.7326 25.6976 11.1766 24.3836 12.055 23.3756C12.9238 22.472 14.1382 21.9848 15.391 22.0352C16.4614 21.9668 17.5114 22.3616 18.271 23.1212C19.015 24.0248 19.3798 25.1816 19.2886 26.3492V35.2568H23.1466V25.88ZM3.52181 18.9008H-0.308594V28.358V35.2568H3.52181V18.9008ZM51.4378 32.8052L49.4278 30.4484H49.4146C48.2434 31.6328 46.633 32.2784 44.9674 32.2292C43.8886 32.2628 42.8206 32.0084 41.8726 31.4924C41.0278 31.01 40.3714 30.254 40.0114 29.3492L52.5358 26.8976C52.573 25.3784 52.1926 23.8784 51.4378 22.5584C50.7502 21.3596 49.7446 20.3768 48.5302 19.718C45.8482 18.3548 42.6718 18.38 40.0102 19.784C38.7562 20.4872 37.7182 21.5204 37.0102 22.772C36.2782 24.0908 35.9038 25.5776 35.9254 27.086C35.9038 28.6016 36.2878 30.0956 37.0378 31.412C37.7842 32.6936 38.887 33.7316 40.2118 34.4C42.8926 35.672 45.9706 35.8172 48.7582 34.8008C49.8058 34.3724 50.7274 33.686 51.4378 32.8052ZM40.855 23.1608C39.937 24.1724 39.4558 25.5068 39.5158 26.8712L48.7582 25.1168C48.5134 24.1532 47.9458 23.3024 47.1502 22.7048C46.3102 22.0772 45.2806 21.7508 44.2306 21.7808C42.9526 21.7184 41.7106 22.2068 40.8154 23.12L40.855 23.1608ZM64.4578 22.3304V18.7136C61.6894 18.7136 59.7466 19.5704 58.6306 21.2852V18.902H54.9874V35.27H58.8178V27.3404C58.7218 25.9724 59.1754 24.6224 60.0778 23.5892C60.9994 22.6664 62.2714 22.1792 63.5734 22.25C63.8698 22.2524 64.1662 22.28 64.4578 22.3304Z" fill="white"/>
<path fill-rule="evenodd" clip-rule="evenodd" d="M104.59 11.4536H108.422V35.2568H104.59V11.4536ZM93.9942 25.8668C94.1406 23.9096 93.4878 21.9764 92.1858 20.5088C90.861 19.2716 89.0922 18.6236 87.2826 18.7136C86.0706 18.698 84.8682 18.9452 83.7594 19.4372C82.7394 19.8848 81.843 20.5748 81.1482 21.446C80.6142 20.5616 79.8318 19.8524 78.897 19.4096C77.8794 18.9356 76.7658 18.6968 75.6426 18.7136C74.5914 18.7028 73.5474 18.902 72.5754 19.3028C71.6814 19.6712 70.8906 20.2496 70.2714 20.9912V18.9008H66.627V35.2292H70.5114V26.9372C70.4238 25.6172 70.8354 24.3116 71.6634 23.2796C72.4698 22.4324 73.6038 21.9776 74.7714 22.034C75.7806 21.9896 76.7586 22.3856 77.451 23.12C78.1494 24.044 78.4854 25.1924 78.4014 26.348V35.2556H82.2462V26.9636C82.1742 25.6592 82.6002 24.3764 83.439 23.3744C84.2238 22.4948 85.3554 22.0052 86.5326 22.034C87.5418 21.9836 88.5222 22.3808 89.2122 23.12C89.9106 24.044 90.2466 25.1924 90.1626 26.348V35.2436H93.9942V25.8668ZM101.255 18.9008H97.4238V35.2568H101.255V18.9008ZM124.502 30.4556L124.496 30.4484H124.509L124.502 30.4556ZM120.075 32.2292C121.732 32.2771 123.335 31.6342 124.502 30.4556L126.518 32.8052C125.789 33.6956 124.844 34.3832 123.772 34.8008C120.985 35.8172 117.905 35.672 115.226 34.4C113.902 33.734 112.803 32.696 112.064 31.412C111.304 30.0992 110.915 28.604 110.939 27.086C110.918 25.5776 111.292 24.0908 112.024 22.772C112.732 21.5204 113.769 20.4872 115.024 19.784C117.685 18.38 120.862 18.3548 123.544 19.718C124.787 20.3648 125.824 21.3488 126.532 22.5584C127.292 23.876 127.676 25.3772 127.643 26.8976L115.105 29.3492C115.469 30.2552 116.131 31.0112 116.98 31.4924C117.928 32.0084 118.996 32.2628 120.075 32.2292ZM115.949 23.1608C115.031 24.1724 114.549 25.5068 114.609 26.8712L123.866 25.0892C123.621 24.1232 123.047 23.2712 122.246 22.6784C121.403 22.0508 120.374 21.7244 119.325 21.7544C118.047 21.692 116.804 22.1792 115.909 23.0936L115.949 23.1608ZM128.782 33.6092C129.703 34.2344 130.729 34.688 131.809 34.9484L131.93 34.9088C133.199 35.2568 134.511 35.4332 135.827 35.4308C137.708 35.5316 139.575 35.066 141.185 34.0916C142.443 33.302 143.199 31.9172 143.182 30.434C143.241 29.456 142.913 28.4948 142.271 27.7556C141.681 27.128 140.938 26.6672 140.115 26.4152C139.063 26.1008 137.987 25.868 136.899 25.7192C135.914 25.574 134.944 25.3316 134.006 24.9956C133.425 24.8144 133.041 24.2636 133.069 23.6564C133.081 23.0804 133.418 22.5608 133.939 22.3172C134.735 21.9356 135.615 21.7604 136.497 21.8084C138.143 21.7844 139.765 22.2104 141.185 23.0396L142.619 20.2148C141.759 19.7264 140.828 19.3784 139.859 19.1828C138.757 18.9284 137.629 18.7976 136.497 18.794C134.647 18.6812 132.806 19.1504 131.233 20.1332C129.995 20.9648 129.265 22.3664 129.291 23.858C129.225 24.8696 129.562 25.8656 130.228 26.63C130.831 27.2684 131.594 27.7316 132.439 27.9692C133.517 28.2908 134.618 28.5284 135.734 28.6796C136.685 28.802 137.624 29.018 138.533 29.3228C139.061 29.4752 139.42 29.9648 139.405 30.5144C139.405 31.7204 138.266 32.3228 135.975 32.3228C134.942 32.3192 133.913 32.1692 132.921 31.8812C131.973 31.6268 131.069 31.2284 130.241 30.7028L128.782 33.6092Z" fill="white"/>
</g>
</g>
<defs>
<clipPath id="clip0">
<rect width="143" height="46" fill="white"/>
</clipPath>
</defs>
</svg>
