<svg width="38" height="26" viewBox="0 0 38 26" fill="none" xmlns="http://www.w3.org/2000/svg">
<g opacity="0.679392">
<path fill-rule="evenodd" clip-rule="evenodd" d="M1.03904 2.07868C1.61313 2.07868 2.07868 1.61372 2.07868 1.03964C2.07868 0.465553 1.61313 0 1.03904 0C0.46496 0 0 0.465553 0 1.03964C0 1.61372 0.46496 2.07868 1.03904 2.07868ZM9.9558 0.0996365H3.71976V1.97964H9.9558V0.0996365Z" fill="white"/>
<path fill-rule="evenodd" clip-rule="evenodd" d="M13.2077 3.84004V0.0996094H15.074V3.68763H17.2589V5.19697H15.074V9.2025C15.0562 9.53343 15.1677 9.85843 15.3854 10.1093C15.606 10.3275 15.9097 10.4408 16.2192 10.4201C16.6012 10.4337 16.9754 10.3145 17.2784 10.0826L17.8081 11.4069C17.5661 11.5955 17.2897 11.7349 16.9938 11.8173C16.6658 11.9063 16.3278 11.9507 15.9879 11.9496C15.2371 11.9964 14.4976 11.7467 13.9288 11.2545C13.4129 10.7118 13.1501 9.97585 13.2071 9.2286V5.35591L13.2077 3.84004ZM11.6848 7.22937C11.7548 6.25675 11.4191 5.29836 10.7585 4.58135L10.7579 4.5683C10.0942 3.9533 9.21176 3.63127 8.30853 3.67456C7.75817 3.66685 7.21196 3.76589 6.69955 3.96516C6.2423 4.14545 5.83724 4.43664 5.52114 4.81324V3.78012H3.72061V11.8831H5.59409V7.79871C5.54961 7.13922 5.76904 6.48982 6.20316 5.99165C6.63254 5.54507 7.23272 5.30429 7.85187 5.3292C8.38088 5.2954 8.89981 5.49051 9.27522 5.86592C9.64292 6.3125 9.82321 6.88421 9.77813 7.46125V11.8635H11.6848V7.22937ZM1.98582 3.78014H0.0927734V8.45405V11.8636H1.98582V3.78014ZM25.6667 10.6519L24.6733 9.48716H24.6668C24.0879 10.0725 23.292 10.3916 22.4689 10.3673C21.9357 10.3839 21.4079 10.2581 20.9394 10.0031C20.5219 9.76471 20.1974 9.39108 20.0195 8.94392L26.2093 7.73229C26.2277 6.98148 26.0397 6.24015 25.6667 5.58778C25.3268 4.99532 24.8298 4.5096 24.2297 4.18401C22.9042 3.51029 21.3343 3.52274 20.0189 4.21663C19.3992 4.56416 18.8862 5.07479 18.5363 5.69335C18.1745 6.34512 17.9895 7.07993 18.0002 7.8254C17.9895 8.57444 18.1793 9.3128 18.5499 9.96339C18.9188 10.5968 19.4638 11.1098 20.1186 11.4401C21.4435 12.0688 22.9647 12.1405 24.3424 11.6382C24.8601 11.4265 25.3156 11.0872 25.6667 10.6519ZM20.4364 5.88553C19.9827 6.38548 19.7449 7.04496 19.7746 7.71927L24.3423 6.85222C24.2214 6.37599 23.9408 5.95551 23.5476 5.66016C23.1325 5.34999 22.6236 5.18868 22.1047 5.20351C21.4731 5.17267 20.8593 5.41404 20.4169 5.86536L20.4364 5.88553ZM32.1017 5.47512V3.68763C30.7335 3.68763 29.7734 4.11108 29.2218 4.95856V3.78074H27.4213V11.8701H29.3143V7.95115C29.2669 7.27506 29.4911 6.60786 29.937 6.09724C30.3925 5.64117 31.0212 5.40039 31.6646 5.43538C31.8111 5.43657 31.9576 5.45021 32.1017 5.47512Z" fill="white"/>
<path fill-rule="evenodd" clip-rule="evenodd" d="M18.7617 14.1303H20.6553V25.8943H18.7617V14.1303ZM13.5254 21.2535C13.5977 20.2863 13.2751 19.3308 12.6316 18.6055C11.9769 17.9941 11.1027 17.6738 10.2084 17.7183C9.60937 17.7106 9.01512 17.8328 8.46713 18.0759C7.96303 18.2971 7.52001 18.6381 7.17663 19.0687C6.91272 18.6316 6.52604 18.2811 6.06405 18.0623C5.56113 17.828 5.01077 17.71 4.45567 17.7183C3.93615 17.713 3.42018 17.8114 2.9398 18.0095C2.49797 18.1916 2.10715 18.4774 1.80113 18.8439V17.8108H0V25.8806H1.91974V21.7826C1.87645 21.1302 2.07986 20.4849 2.48908 19.9749C2.88761 19.5562 3.44806 19.3314 4.0251 19.3593C4.52387 19.3374 5.00721 19.5331 5.34941 19.896C5.69457 20.3527 5.86063 20.9202 5.81912 21.4914V25.8937H7.71928V21.7956C7.6837 21.1509 7.89424 20.517 8.30879 20.0218C8.69665 19.587 9.2559 19.3451 9.8377 19.3593C10.3365 19.3344 10.821 19.5307 11.162 19.896C11.5072 20.3527 11.6732 20.9202 11.6317 21.4914V25.8877H13.5254V21.2535ZM17.1138 17.8109H15.2201V25.8943H17.1138V17.8109ZM28.6026 23.5214L28.5996 23.5179H28.6061L28.6026 23.5214ZM26.4147 24.398C27.2339 24.4216 28.0259 24.1039 28.6026 23.5214L29.5989 24.6826C29.2389 25.1227 28.7716 25.4625 28.242 25.6689C26.8643 26.1712 25.3425 26.0995 24.0182 25.4708C23.364 25.1417 22.8208 24.6287 22.4555 23.9941C22.0801 23.3453 21.8879 22.6063 21.8998 21.8561C21.8891 21.1106 22.0741 20.3758 22.4359 19.724C22.7858 19.1055 23.2982 18.5949 23.9186 18.2473C25.2334 17.5534 26.8038 17.541 28.1293 18.2147C28.7437 18.5344 29.2561 19.0207 29.606 19.6185C29.9814 20.2697 30.1712 21.0116 30.1552 21.763L23.9583 22.9746C24.1386 23.4224 24.4654 23.796 24.8852 24.0338C25.3538 24.2888 25.8816 24.4146 26.4147 24.398ZM24.3761 19.9162C23.9224 20.4162 23.684 21.0757 23.7136 21.75L28.2885 20.8693C28.1675 20.3919 27.884 19.9708 27.4879 19.6778C27.0715 19.3676 26.5627 19.2063 26.0444 19.2212C25.4127 19.1903 24.7983 19.4311 24.3559 19.883L24.3761 19.9162ZM30.7185 25.08C31.1733 25.389 31.6804 25.6131 32.2142 25.7418L32.2741 25.7223C32.9015 25.8942 33.5497 25.9814 34.2003 25.9802C35.1297 26.0301 36.0525 25.7999 36.8484 25.3184C37.4699 24.9281 37.8435 24.2438 37.8352 23.5107C37.8643 23.0274 37.7024 22.5523 37.3851 22.187C37.0933 21.8768 36.7262 21.6491 36.3193 21.5246C35.7992 21.3692 35.2678 21.2541 34.7299 21.1806C34.243 21.1088 33.7638 20.989 33.3001 20.823C33.013 20.7334 32.8232 20.4612 32.8369 20.1611C32.8428 19.8765 33.0095 19.6197 33.2669 19.4993C33.6606 19.3107 34.0954 19.2241 34.5313 19.2478C35.3449 19.2359 36.1462 19.4465 36.8484 19.8563L37.5571 18.4602C37.1318 18.2188 36.6716 18.0469 36.193 17.9502C35.648 17.8245 35.0905 17.7598 34.5313 17.758C33.6168 17.7023 32.707 17.9342 31.9295 18.4199C31.3181 18.8309 30.9569 19.5236 30.9699 20.2608C30.9373 20.7607 31.104 21.2529 31.4331 21.6307C31.7308 21.9462 32.108 22.1752 32.5255 22.2926C33.0587 22.4515 33.6025 22.569 34.1541 22.6437C34.6244 22.7042 35.0881 22.8109 35.5377 22.9616C35.7986 23.0369 35.976 23.2788 35.9682 23.5505C35.9682 24.1465 35.4054 24.4442 34.2733 24.4442C33.7627 24.4424 33.2544 24.3683 32.7639 24.226C32.2954 24.1002 31.8488 23.9033 31.4396 23.6436L30.7185 25.08Z" fill="white"/>
<path d="M17.2056 15.0768C17.2056 15.6509 16.7407 16.1164 16.1666 16.1164C15.5925 16.1164 15.127 15.6509 15.127 15.0768C15.127 14.5027 15.5925 14.0372 16.1666 14.0372C16.7407 14.0372 17.2056 14.5027 17.2056 15.0768Z" fill="white"/>
</g>
</svg>
