<svg width="70" height="70" viewBox="0 0 49 49" fill="none" xmlns="http://www.w3.org/2000/svg">
<circle cx="24.3056" cy="24.3056" r="24.3056" fill="#474161"/>
<g clip-path="url(#clip0)">
<path fill-rule="evenodd" clip-rule="evenodd" d="M14.846 18.887C14.876 18.592 14.763 18.301 14.543 18.103L12.303 15.403V15H19.261L24.639 26.795L29.367 15H36V15.403L34.084 17.24C33.919 17.366 33.837 17.573 33.871 17.778V31.276C33.837 31.48 33.919 31.687 34.084 31.813L35.955 33.65V34.053H26.543V33.65L28.482 31.768C28.672 31.578 28.672 31.522 28.672 31.231V20.321L23.283 34.009H22.555L16.28 20.321V29.495C16.228 29.88 16.356 30.269 16.627 30.547L19.148 33.605V34.009H12V33.605L14.521 30.547C14.791 30.268 14.911 29.877 14.846 29.495V18.887Z" fill="white"/>
</g>
<defs>
<clipPath id="clip0">
<rect width="24" height="24" fill="white" transform="translate(12 13)"/>
</clipPath>
</defs>
</svg>
