<svg width="31" height="30" viewBox="0 0 31 30" fill="none" xmlns="http://www.w3.org/2000/svg">
<path d="M23.4111 29.8537C27.1554 29.8537 30.2053 26.8537 30.2053 23.1464V6.90245C30.2053 3.19513 27.1554 0.195129 23.4111 0.195129H6.82248C3.07825 0.195129 0.0283203 3.19513 0.0283203 6.90245V23.1464C0.0283203 26.8537 3.07825 29.8537 6.82248 29.8537H23.4111Z" fill="#797575"/>
<path d="M25.8408 9.51222C25.4192 9.97563 22.6917 15 22.2949 15.8049C21.7494 16.7805 21.2287 17.0976 20.8319 17.0976C19.9393 17.0976 20.1129 15.6586 20.2616 15.1708C21.1047 11.9269 22.0222 10.7317 22.1461 10.5122C22.7908 9.63417 22.1709 8.58539 21.2535 8.58539C20.1377 8.58539 19.7161 9.26831 19.7161 10.3903C19.3938 11.2683 18.7491 12.8049 18.6499 12.9512C18.2531 13.7805 16.2447 16.6829 15.5504 17.3415C15.4016 17.4878 15.2032 17.4878 15.2032 17.2927C15.2776 15.2927 16.3934 11.561 16.3934 11.561C16.4182 11.439 16.443 11.3171 16.443 11.2195C16.443 10.6342 16.1703 10.2439 15.5504 10.1951C14.9305 10.1464 14.6081 10.439 14.0378 11.0976C12.798 12.6098 11.3102 14.9025 10.5911 15.9512C10.5167 16.0732 10.368 16.0244 10.368 15.8781C10.368 15.4147 11.8805 10.1708 11.8805 10.1708C12.0045 9.60978 11.6326 9.17075 10.9879 9.17075C10.2688 9.17075 8.7562 11.1951 6.40056 14.3903C6.32617 14.4878 6.1526 14.439 6.20219 14.3415C6.74771 12.9025 7.26843 11.1708 7.26843 10.2683C7.26843 9.41466 6.89648 8.97563 6.1526 8.97563C4.46646 8.97563 2.9043 10.8293 2.9043 11.7073C2.9043 12.1951 3.20185 12.6586 3.69778 12.6586C4.44166 12.6586 4.61523 11.2927 5.16075 11.2927C5.25994 11.2927 5.25994 11.4147 5.25994 11.439C5.16075 12.4147 3.94574 16.4147 3.30104 18.3171C2.97869 19.2927 3.17706 19.9756 3.99533 19.9756C4.59044 19.9756 5.16075 19.4147 5.73106 18.561C6.84689 16.9025 8.50824 14.3171 8.68181 14.3171C8.7314 14.3171 8.7562 14.3415 8.7562 14.3903C8.53303 15.5854 7.59078 19.2683 9.45049 19.2683C9.79764 19.2683 10.1696 19.1708 10.5663 18.7805C11.0127 18.3171 12.7484 16.0244 13.7898 14.1951C13.8642 14.0732 13.9386 14.1708 13.9138 14.2683C13.7154 15.2195 13.0211 17.8781 13.0211 18.4878C13.0211 19.9025 14.0626 19.9025 14.1122 19.9025C16.1207 19.9025 18.1292 16.4147 18.4763 15.9269C17.8564 18.0488 18.873 20.1464 21.0799 19.2927C20.46 20.8049 19.3938 23.0976 19.3938 25.439C19.3938 26.8781 20.212 27.5854 21.0303 27.5854C21.6254 27.5854 22.1709 27.2439 22.1709 26.6586C21.3279 25.0976 22.0966 21 24.229 16.2683C25.2457 15.1464 27.7501 11.3171 27.7501 10.122C27.7501 9.43905 27.3533 9.12197 26.8326 9.12197C26.3863 9.0488 26.1383 9.19514 25.8408 9.51222Z" fill="white"/>
</svg>
