<svg width="156" height="46" viewBox="0 0 156 46" fill="none" xmlns="http://www.w3.org/2000/svg">
<path d="M101.698 45.7756C107.44 45.7756 112.116 41.1756 112.116 35.4911V10.5837C112.116 4.89919 107.44 0.299194 101.698 0.299194H76.2624C70.5213 0.299194 65.8447 4.89919 65.8447 10.5837V35.4911C65.8447 41.1756 70.5213 45.7756 76.2624 45.7756H101.698Z" fill="#797575"/>
<path d="M105.424 14.5854C104.778 15.296 100.596 23 99.9872 24.2342C99.1507 25.7301 98.3523 26.2163 97.7439 26.2163C96.3752 26.2163 96.6413 24.0098 96.8695 23.2618C98.1622 18.2878 99.5689 16.4553 99.7591 16.1187C100.748 14.7724 99.7971 13.1642 98.3903 13.1642C96.6794 13.1642 96.033 14.2114 96.033 15.9317C95.5387 17.2781 94.5502 19.6342 94.3981 19.8586C93.7898 21.1301 90.7101 25.5805 89.6455 26.5903C89.4174 26.8147 89.1132 26.8147 89.1132 26.5155C89.2273 23.4488 90.9382 17.7268 90.9382 17.7268C90.9762 17.5399 91.0143 17.3529 91.0143 17.2033C91.0143 16.3057 90.596 15.7073 89.6455 15.6325C88.695 15.5577 88.2007 16.0065 87.3262 17.0163C85.4252 19.335 83.1439 22.8504 82.0413 24.4586C81.9273 24.6455 81.6992 24.5708 81.6992 24.3464C81.6992 23.6358 84.0184 15.5951 84.0184 15.5951C84.2085 14.735 83.6382 14.0618 82.6497 14.0618C81.5471 14.0618 79.2278 17.1659 75.6158 22.0651C75.5018 22.2147 75.2356 22.1399 75.3117 21.9903C76.1481 19.7838 76.9465 17.1285 76.9465 15.7447C76.9465 14.4358 76.3762 13.7626 75.2356 13.7626C72.6502 13.7626 70.2549 16.6049 70.2549 17.9512C70.2549 18.6992 70.7111 19.4098 71.4715 19.4098C72.6122 19.4098 72.8783 17.3155 73.7148 17.3155C73.8669 17.3155 73.8669 17.5025 73.8669 17.5399C73.7148 19.0358 71.8518 25.1691 70.8632 28.0862C70.3689 29.5821 70.6731 30.6293 71.9278 30.6293C72.8403 30.6293 73.7148 29.7691 74.5893 28.4602C76.3002 25.9171 78.8476 21.9529 79.1137 21.9529C79.1898 21.9529 79.2278 21.9903 79.2278 22.0651C78.8856 23.8976 77.4408 29.5447 80.2924 29.5447C80.8247 29.5447 81.395 29.3951 82.0033 28.7968C82.6877 28.0862 85.3492 24.5708 86.946 21.7659C87.0601 21.5789 87.1742 21.7285 87.1361 21.8781C86.832 23.3366 85.7674 27.413 85.7674 28.348C85.7674 30.5171 87.3643 30.5171 87.4403 30.5171C90.52 30.5171 93.5997 25.1691 94.132 24.4212C93.1814 27.6748 94.7403 30.8911 98.1242 29.5821C97.1736 31.9008 95.5387 35.4163 95.5387 39.0065C95.5387 41.213 96.7934 42.2976 98.0481 42.2976C98.9606 42.2976 99.7971 41.774 99.7971 40.8764C98.5044 38.4829 99.683 32.2 102.953 24.9447C104.512 23.2244 108.352 17.3529 108.352 15.5203C108.352 14.4732 107.743 13.987 106.945 13.987C106.261 13.8748 105.88 14.0992 105.424 14.5854" fill="white"/>
<path d="M16.5314 28.909H13.6418V22.5139C13.6418 21.6163 13.4897 20.9057 13.1855 20.4944C12.8814 20.0456 12.3871 19.8212 11.7027 19.8212C11.2085 19.8212 10.7142 19.9334 10.296 20.1952C9.87773 20.457 9.49753 20.7935 9.23138 21.2423V28.909H6.3418V17.3155H7.97669L9.0793 18.8862C9.30742 18.6618 9.64961 18.4 9.95378 18.2505C10.2579 18.0635 10.5241 17.9139 10.8663 17.7643C11.1704 17.6147 11.5126 17.5399 11.8548 17.4277C12.197 17.3529 12.5772 17.3155 12.9194 17.3155C13.3376 17.3155 13.7178 17.3529 14.022 17.4651C14.3262 17.5399 14.6303 17.6895 14.8585 17.8391C15.1246 18.0261 15.3147 18.2131 15.5048 18.4374C15.6949 18.6618 15.847 18.961 15.9991 19.2602C16.2272 19.0358 16.4934 18.8114 16.7595 18.587C17.0637 18.3626 17.3678 18.1383 17.71 17.9513C18.0522 17.7643 18.4324 17.6147 18.8507 17.5025C19.2689 17.3903 19.6871 17.3155 20.1814 17.3155C20.8277 17.3155 21.398 17.4277 21.8543 17.6895C22.3105 17.9513 22.6908 18.3252 22.9569 18.774C23.2611 19.2228 23.4512 19.7838 23.5652 20.4196C23.6793 21.0553 23.7553 21.7659 23.7553 22.5139V28.909H20.8658V22.5139C20.8658 21.6163 20.7137 20.9057 20.4475 20.4944C20.1434 20.0456 19.6871 19.8212 19.0027 19.8212C18.5085 19.8212 18.0142 19.9334 17.596 20.1578C17.1777 20.3822 16.7975 20.7561 16.4553 21.2423V28.909H16.5314Z" fill="white"/>
<path fill-rule="evenodd" clip-rule="evenodd" d="M31.8923 28.5724C32.4626 28.3106 32.9949 28.0114 33.337 27.6374L34.0594 28.909H36.1126V21.9155C36.1126 20.4195 35.6943 19.2602 34.8579 18.4748C34.0214 17.6895 32.7667 17.2781 31.0938 17.2781C30.6376 17.2781 30.1813 17.2781 29.7251 17.3529L29.7251 17.3529C29.3068 17.4277 28.8886 17.5025 28.5084 17.5773C28.3703 17.618 28.2372 17.6538 28.1092 17.6883C27.8846 17.7487 27.6755 17.805 27.4818 17.8765C27.3423 17.9279 27.2188 17.9794 27.104 18.0272C26.9684 18.0837 26.8449 18.1351 26.7214 18.1756L27.0636 20.6065C27.1225 20.5834 27.1789 20.561 27.2335 20.5394C27.7082 20.3513 28.0467 20.2171 28.6605 20.083C29.3068 19.9334 30.0292 19.8586 30.8277 19.8586C31.6641 19.8586 32.2725 19.9708 32.6907 20.1951C33.1089 20.4195 33.299 20.7187 33.299 21.1301V21.7659H30.4094C27.71 21.7659 25.999 23.1496 25.999 25.3187C25.999 25.8423 26.0751 26.3285 26.2652 26.7773C26.4553 27.226 26.6834 27.6 27.0256 27.9366C27.3678 28.2358 27.748 28.4976 28.2042 28.6846C28.6605 28.8716 29.1928 28.9464 29.7631 28.9464C30.5995 28.9464 31.2839 28.7968 31.8923 28.5724ZM30.7516 23.6358H33.337V24.9447C33.1849 25.1691 33.0329 25.3935 32.8428 25.5805C32.6527 25.7675 32.4245 25.9545 32.1584 26.1041C31.8922 26.2537 31.6261 26.3659 31.3219 26.4407C31.0178 26.5155 30.7136 26.5529 30.3714 26.5529C29.8391 26.5529 29.4209 26.4033 29.1547 26.1789C28.8886 25.9171 28.7365 25.5805 28.7365 25.1317C28.7365 24.683 28.9266 24.309 29.2308 24.0472C29.5349 23.7854 30.0672 23.6358 30.7516 23.6358Z" fill="white"/>
<path d="M49.7617 17.1659L45.0471 22.9626L50.4081 28.909H46.7581L41.8154 23.0374V28.909H38.9258V13.0146H41.8154V23.0374L46.2258 17.1659H49.7617Z" fill="white"/>
<path fill-rule="evenodd" clip-rule="evenodd" d="M58.0884 26.3285C57.7082 26.4033 57.2139 26.4407 56.7197 26.4407C56.378 26.4407 56.0727 26.4049 55.7787 26.3705C55.6473 26.3551 55.5181 26.34 55.3889 26.3285C54.9707 26.2163 54.6665 26.0293 54.3624 25.8049C54.0582 25.5805 53.8301 25.3187 53.678 24.9821C53.5259 24.6455 53.4118 24.309 53.3738 23.8976H61.4342C61.4548 23.8166 61.4643 23.7137 61.4746 23.6007C61.4834 23.505 61.4929 23.4021 61.5103 23.2992C61.5483 23.0748 61.5483 22.8504 61.5483 22.6634C61.5483 21.9903 61.4723 21.3171 61.2441 20.6813C61.016 20.0455 60.7119 19.4846 60.2556 18.9984C59.8374 18.5122 59.2671 18.1382 58.5827 17.839C57.8983 17.5399 57.0999 17.3903 56.1494 17.3903C55.1988 17.3903 54.4004 17.5399 53.678 17.839C52.9556 18.1382 52.3853 18.587 51.891 19.1106C51.3967 19.6342 51.0546 20.2699 50.7884 20.9805C50.5223 21.6911 50.4082 22.439 50.4082 23.2244C50.4082 24.0846 50.5603 24.8699 50.8264 25.5805C51.0926 26.2911 51.5108 26.8894 52.0431 27.413C52.5754 27.8992 53.2598 28.3106 54.0202 28.5724C54.8186 28.8342 55.6931 28.9838 56.7197 28.9838C57.6322 28.9838 58.4686 28.8716 59.191 28.6472C59.9134 28.4228 60.6358 28.161 61.1301 27.8244L60.5598 25.3187C60.4398 25.4171 60.4039 25.4327 60.3582 25.4525C60.317 25.4705 60.2677 25.4919 60.1415 25.5805C59.8754 25.7675 59.5712 25.9171 59.229 26.0293C58.8869 26.1415 58.5066 26.2537 58.0884 26.3285ZM55.1228 19.9707C55.4269 19.8585 55.7691 19.8212 56.1493 19.8212C56.5676 19.8212 56.9097 19.8585 57.2139 20.0081C57.5181 20.0829 57.7842 20.2325 57.9743 20.4195C58.2025 20.6065 58.3165 20.8309 58.4306 21.0553C58.5446 21.2797 58.5827 21.5415 58.5827 21.8033H53.4498C53.4879 21.5415 53.6019 21.2797 53.754 21.0179C53.9061 20.7561 54.0962 20.5691 54.3243 20.3821C54.5525 20.1951 54.8186 20.0455 55.1228 19.9707Z" fill="white"/>
<path d="M115.271 18.961L119.15 14.3984H119.986V17.3154H123.332V19.8585H119.986V24.6081C119.986 24.9447 120.024 25.2065 120.1 25.4309C120.176 25.6553 120.29 25.8423 120.442 25.9545C120.594 26.1041 120.746 26.1789 120.937 26.2537C121.127 26.2911 121.317 26.3285 121.507 26.3285C121.887 26.3285 122.229 26.2911 122.533 26.2163C122.838 26.1415 123.104 26.0667 123.332 25.9545V28.4976C123.028 28.6472 122.686 28.7594 122.343 28.8341C122.001 28.9089 121.583 28.9463 121.089 28.9463C120.404 28.9463 119.796 28.8715 119.302 28.6846C118.807 28.535 118.389 28.2732 118.085 27.974C117.781 27.6748 117.515 27.3008 117.363 26.852C117.211 26.4033 117.135 25.9171 117.135 25.3561V19.8585H115.271V18.961Z" fill="white"/>
<path d="M128.275 19.709C128.655 18.9984 129.377 18.3626 129.948 17.9138C130.518 17.5025 131.202 17.2781 132.039 17.2781C132.305 17.2781 132.533 17.2781 132.723 17.3155C132.913 17.3529 133.027 17.3529 133.103 17.3903C133.103 17.3903 133.027 18.0634 132.571 20.0455C132.381 20.0081 132.191 19.9707 131.925 19.9707C131.392 19.9707 130.898 20.0455 130.48 20.2325C130.062 20.4195 129.681 20.6813 129.377 21.0179C129.073 21.3545 128.845 21.8033 128.693 22.2894C128.541 22.7756 128.465 23.374 128.465 24.0098V28.8342H125.575V17.2407H127.438L128.275 19.709Z" fill="white"/>
<path fill-rule="evenodd" clip-rule="evenodd" d="M149.186 17.8016C148.578 17.465 147.818 17.3154 146.943 17.3154C146.221 17.3154 145.574 17.4276 145.004 17.6894C144.434 17.9512 143.826 18.3626 143.407 18.774L142.305 17.3528H140.594V33.6211H143.483V27.6L143.521 27.5626C143.94 28.0114 144.396 28.3479 144.966 28.5723C145.536 28.7967 146.221 28.9089 147.019 28.9089C147.856 28.9089 148.578 28.7593 149.186 28.4601C149.833 28.161 150.327 27.7496 150.745 27.226C151.126 26.7024 151.468 26.0666 151.658 25.3935C151.848 24.7203 151.962 23.9723 151.962 23.187C151.962 22.439 151.848 21.691 151.658 20.9805C151.468 20.2699 151.164 19.6715 150.745 19.1106C150.327 18.5496 149.795 18.1382 149.186 17.8016ZM145.194 20.0081C145.498 19.8959 145.803 19.8585 146.183 19.8585C146.601 19.8585 146.981 19.9333 147.361 20.0829C147.704 20.2699 147.97 20.4943 148.236 20.7935C148.464 21.0927 148.654 21.4666 148.806 21.878C148.92 22.2894 148.996 22.7756 148.996 23.2618C148.996 23.7479 148.958 24.1593 148.844 24.5707C148.73 24.9447 148.54 25.2813 148.312 25.5805C148.084 25.8797 147.78 26.104 147.437 26.2536C147.095 26.4032 146.677 26.478 146.183 26.478C145.841 26.478 145.536 26.4406 145.27 26.3658C145.004 26.291 144.738 26.1788 144.51 26.0292C144.282 25.8797 144.092 25.7301 143.902 25.5431C143.711 25.3561 143.559 25.1691 143.445 24.9821V21.691C143.521 21.4666 143.673 21.2423 143.826 21.0179C143.978 20.7935 144.168 20.6065 144.396 20.4195C144.624 20.2699 144.89 20.1203 145.194 20.0081Z" fill="white"/>
<path fill-rule="evenodd" clip-rule="evenodd" d="M134.51 14.0244C134.51 13.2016 135.194 12.5284 136.031 12.5284C136.867 12.5284 137.551 13.2016 137.551 14.0244C137.551 14.8471 136.867 15.5203 136.031 15.5203C135.194 15.5203 134.51 14.8471 134.51 14.0244ZM134.586 28.9089H137.475V17.3154H134.586V28.9089Z" fill="white"/>
</svg>
