<svg width="156" height="46" viewBox="0 0 156 46" fill="none" xmlns="http://www.w3.org/2000/svg">
<g opacity="0.679392">
<path fill-rule="evenodd" clip-rule="evenodd" d="M28.2032 18.3416C30.5145 18.3416 32.3876 20.2151 32.3876 22.5257C32.3876 24.837 30.5145 26.7103 28.2032 26.7103C25.8915 26.7103 24.0176 24.837 24.0176 22.5257C24.0176 20.2151 25.8915 18.3416 28.2032 18.3416ZM128.47 18.3416C130.781 18.3416 132.654 20.2151 132.654 22.5257C132.654 24.837 130.781 26.7103 128.47 26.7103C126.159 26.7103 124.285 24.837 124.285 22.5257C124.285 20.2151 126.159 18.3416 128.47 18.3416Z" fill="white"/>
<path fill-rule="evenodd" clip-rule="evenodd" d="M96.423 10.6768H100.672V15.0196H105.605V18.7706H100.672V24.7222C100.672 25.9557 101.437 26.2873 102.623 26.2873C103.773 26.2873 104.701 26.1068 105.533 25.8677V29.6705C104.636 29.9092 103.286 30.1205 101.843 30.1205C98.2418 30.1205 96.423 28.2491 96.423 25.2692V10.6768ZM69.7566 14.5865C71.7337 14.5865 73.143 15.3354 74.1994 16.3374V15.0417H78.2909V30.0034H74.0414V28.699C72.9848 29.7384 71.5878 30.451 69.7566 30.451C65.9588 30.451 62.5028 27.278 62.5028 22.519C62.5028 17.7593 65.9918 14.5865 69.7566 14.5865ZM88.2405 26.2816C86.2071 26.2816 84.5586 24.7828 84.5586 22.5257C84.5586 20.2686 86.2071 18.7706 88.2405 18.7706C89.5497 18.7706 90.682 19.3834 91.3624 20.4573L94.7661 18.0123C93.3351 15.9429 90.9465 14.5865 88.2405 14.5865C83.8605 14.5865 80.3095 18.1376 80.3095 22.519C80.3095 26.8994 83.8605 30.451 88.2405 30.451C90.8402 30.451 93.1636 29.2937 94.9369 26.8575L91.4982 24.4765C90.7753 25.546 89.6641 26.2816 88.2405 26.2816ZM70.4353 26.2816C68.4012 26.2816 66.7523 24.7828 66.7523 22.5257C66.7523 20.2686 68.4012 18.7706 70.4353 18.7706C72.4689 18.7706 74.1177 20.2797 74.1177 22.5257C74.1177 24.7721 72.4689 26.2816 70.4353 26.2816ZM56.3594 16.7848V15.0417H52.2637V30.0034H56.5102V22.9074C56.5102 19.9267 58.1653 19.1174 60.0024 19.1174C60.4534 19.1174 60.9352 19.1473 61.4473 19.2671V15.0417C61.1458 14.9511 60.6942 14.8911 60.2425 14.8911C59.0385 14.8911 57.3063 15.2863 56.3594 16.7848ZM114.592 26.2816C112.558 26.2816 110.909 24.7828 110.909 22.5257C110.909 20.2686 112.558 18.7706 114.592 18.7706C116.626 18.7706 118.275 20.2797 118.275 22.5257C118.275 24.7721 116.626 26.2816 114.592 26.2816ZM106.661 22.519C106.661 18.1376 110.212 14.5865 114.592 14.5865C118.973 14.5865 122.524 18.1376 122.524 22.519C122.524 26.8994 118.973 30.451 114.592 30.451C110.212 30.451 106.661 26.8994 106.661 22.519ZM42.3126 26.2816C40.2784 26.2816 38.6296 24.7721 38.6296 22.5257C38.6296 20.2797 40.2784 18.7706 42.3126 18.7706C44.346 18.7706 45.995 20.2686 45.995 22.5257C45.995 24.7828 44.346 26.2816 42.3126 26.2816ZM38.5479 16.3374C39.6045 15.3354 41.0135 14.5865 42.9913 14.5865C46.7554 14.5865 50.2451 17.7593 50.2451 22.519C50.2451 27.278 46.7887 30.451 42.9913 30.451C41.1599 30.451 39.7631 29.7384 38.7061 28.699L38.7065 35.3231H34.457V15.0417H38.5479V16.3374Z" fill="white"/>
</g>
</svg>
