<svg width="33" height="20" viewBox="0 0 33 20" fill="none" xmlns="http://www.w3.org/2000/svg">
<g opacity="0.679392">
<path fill-rule="evenodd" clip-rule="evenodd" d="M4.78767 12.7905C4.89802 14.2362 5.95325 15.5729 8.0662 15.5729C9.66902 15.5729 10.4332 14.7195 10.4332 13.7567C10.4332 12.9419 9.88723 12.2725 8.50262 11.9745L6.13523 11.4207C2.67679 10.6415 1.11061 8.52731 1.11061 5.97088C1.11061 2.70775 3.95106 0 7.8097 0C12.9088 0 14.6208 3.29876 14.8382 5.2667L10.7984 6.19261C10.6514 5.1179 9.88723 3.74516 7.84757 3.74516C6.57289 3.74516 5.55306 4.52479 5.55306 5.56178C5.55306 6.45039 6.20811 7.00619 7.1917 7.1923L9.74066 7.74852C13.2724 8.49001 15.0576 10.6784 15.0576 13.3468C15.0576 16.3148 12.8001 19.3545 8.10243 19.3545C2.71261 19.3545 0.856165 15.7938 0.636719 13.719L4.78767 12.7905Z" fill="white"/>
<path fill-rule="evenodd" clip-rule="evenodd" d="M24.0473 4.59504C26.4236 4.59504 27.54 6.14799 27.9716 7.66627L32.2567 6.18562C31.6815 3.85091 29.9504 1.52213 27.0338 0.538269L22.9434 4.74176C23.2997 4.65593 23.6667 4.59504 24.0473 4.59504Z" fill="white"/>
<path fill-rule="evenodd" clip-rule="evenodd" d="M24.0826 14.8435C21.6351 14.8435 19.5456 12.9908 19.5456 9.70058C19.5456 9.06934 19.6427 8.51039 19.7818 7.9895L15.2227 12.6758C16.3978 16.659 19.8522 19.3548 24.0826 19.3548C28.7985 19.3548 31.5698 16.2464 32.3635 13.2149L28.1504 11.7727C27.7533 13.1777 26.53 14.8435 24.0826 14.8435Z" fill="white"/>
</g>
</svg>
