<svg width="71" height="19" viewBox="0 0 71 19" fill="none" xmlns="http://www.w3.org/2000/svg">
<g opacity="0.679392">
<path d="M0 0.331482H2.99116V9.34915C2.99116 10.4607 3.21239 11.2726 3.65645 11.7836C4.09972 12.2939 4.80346 12.5498 5.76745 12.5498C6.74543 12.5498 7.45713 12.2958 7.90324 11.7884C8.34935 11.2808 8.57354 10.4676 8.57354 9.34915V0.331482H11.5356V9.67109C11.5356 11.434 11.0417 12.7872 10.0538 13.7306C9.06651 14.6741 7.6447 15.146 5.78724 15.146C3.91602 15.146 2.48419 14.6757 1.49131 13.7352C0.49627 12.7947 0 11.4402 0 9.67109V0.331482Z" fill="white"/>
<path fill-rule="evenodd" clip-rule="evenodd" d="M13.501 4.13722V19H16.2675V13.4278C16.6194 13.9747 17.0609 14.3904 17.5924 14.6767C18.1229 14.9636 18.7279 15.1064 19.4062 15.1064C20.6884 15.1064 21.7382 14.5775 22.5535 13.5208C23.3677 12.4633 23.7753 11.0854 23.7753 9.3877C23.7753 7.7092 23.3677 6.35433 22.5535 5.32311C21.7382 4.29223 20.6762 3.77667 19.3666 3.77667C18.6823 3.77667 18.0865 3.9193 17.5825 4.20524C17.0777 4.49164 16.6194 4.94735 16.2092 5.57226V4.13722H13.501ZM20.3441 7.06062C20.748 7.62365 20.9499 8.43831 20.9499 9.50508C20.9499 10.4805 20.7445 11.2484 20.3346 11.808C19.9234 12.3675 19.3595 12.6474 18.6428 12.6474C17.8863 12.6474 17.3026 12.374 16.8882 11.8269C16.474 11.281 16.2675 10.5063 16.2675 9.50508C16.2675 8.43161 16.4643 7.61502 16.8586 7.05551C17.2532 6.49647 17.8273 6.2162 18.5841 6.2162C19.3533 6.2162 19.9395 6.4976 20.3441 7.06062Z" fill="white"/>
<path d="M41.8193 4.13737H44.4583V5.95282C44.8301 5.22401 45.2632 4.68892 45.7591 4.34734C46.2539 4.00575 46.8439 3.83496 47.5282 3.83496C47.6386 3.83496 47.725 3.83678 47.7872 3.83962C47.8483 3.84314 47.8996 3.84791 47.9383 3.85404L47.9483 6.73342H47.0008C46.2243 6.73342 45.6412 6.9351 45.2508 7.33846C44.8587 7.7416 44.6639 8.3405 44.6639 9.13382V14.7454H41.8193V4.13737Z" fill="white"/>
<path fill-rule="evenodd" clip-rule="evenodd" d="M54.1847 14.6918C54.7654 14.4021 55.2343 13.9809 55.5921 13.4278C55.5952 13.5561 55.5959 13.8374 55.5965 14.1115C55.5972 14.3797 55.5978 14.641 55.6007 14.7452H58.2708V12.7837V6.75285C58.2708 5.78374 57.875 5.04186 57.0835 4.52801C56.2915 4.01416 55.1528 3.75684 53.6671 3.75684C52.3118 3.75684 51.2489 4.06753 50.48 4.68881C49.7113 5.3102 49.3263 6.16405 49.3263 7.25046V7.44612H51.9851V7.28952C51.9851 6.86697 52.1382 6.54174 52.4447 6.31394C52.7509 6.08614 53.1908 5.97225 53.7642 5.97225C54.3902 5.97225 54.8363 6.06491 55.1042 6.25058C55.3708 6.43613 55.5041 6.74342 55.5041 7.17267C55.5041 7.71287 54.9021 8.06081 53.6964 8.21741C53.2207 8.27578 52.8364 8.32767 52.5424 8.37298C51.259 8.56819 50.3384 8.92953 49.7804 9.45656C49.2236 9.98267 48.9443 10.7473 48.9443 11.7495C48.9443 12.8296 49.2236 13.6621 49.7804 14.2476C50.3385 14.8335 51.1315 15.1263 52.1615 15.1263C52.9306 15.1263 53.6053 14.9809 54.1847 14.6918ZM53.9448 10.0415C54.5483 9.91129 55.0816 9.73959 55.5435 9.52473H55.5436V10.5294C55.5436 11.2773 55.3234 11.8682 54.8838 12.3003C54.4441 12.7331 53.8399 12.9498 53.0712 12.9498C52.6406 12.9498 52.298 12.8344 52.0439 12.6033C51.7904 12.3722 51.6629 12.0616 51.6629 11.671C51.6629 11.2939 51.7624 10.9978 51.9603 10.7834C52.1605 10.5682 52.5099 10.3894 53.0118 10.2464C53.0314 10.2397 53.3432 10.1714 53.9448 10.0415Z" fill="white"/>
<path fill-rule="evenodd" clip-rule="evenodd" d="M70.242 14.7454V0.370422H67.4847V5.45488C67.1333 4.90833 66.6883 4.49157 66.1506 4.20529C65.6131 3.91935 65.0019 3.77661 64.3179 3.77661C63.0333 3.77661 61.9861 4.30511 61.175 5.36233C60.3634 6.41945 59.958 7.7943 59.958 9.48609C59.958 11.1637 60.3634 12.5203 61.175 13.555C61.9861 14.5892 63.047 15.1064 64.3574 15.1064C65.0482 15.1064 65.6494 14.9612 66.1608 14.6722C66.6722 14.3826 67.1334 13.9289 67.5434 13.3109V14.7454H70.242ZM63.4084 11.8228C63.005 11.2594 62.8017 10.4415 62.8017 9.36799C62.8017 8.39252 63.0083 7.62646 63.4182 7.07048C63.8285 6.51393 64.3897 6.23571 65.0992 6.23571C65.8558 6.23571 66.442 6.50757 66.8588 7.05072C67.2757 7.59364 67.4846 8.36652 67.4846 9.36799C67.4846 10.4478 67.2858 11.2677 66.8886 11.8271C66.4907 12.3868 65.9138 12.667 65.1584 12.667C64.3959 12.667 63.8132 12.385 63.4084 11.8228Z" fill="white"/>
<path d="M39.6282 7.65997H32.7759V10.1295L35.8754 10.1328C35.6286 10.8495 35.1741 11.4853 34.5506 11.924C34.0926 12.276 33.4928 12.4862 32.7512 12.5234C32.746 12.5234 32.7425 12.5234 32.7374 12.5239C32.6596 12.5272 32.5782 12.5272 32.4964 12.5263C32.4326 12.5254 32.3691 12.5213 32.3069 12.5172C32.198 12.5111 32.0913 12.5031 31.9883 12.4904C31.9701 12.4884 31.951 12.4852 31.9332 12.4822C31.8023 12.4643 31.6775 12.4413 31.5555 12.4132C31.5487 12.4119 31.5398 12.4091 31.5317 12.4074C31.4089 12.3784 31.2918 12.3436 31.1781 12.304C31.1563 12.2967 31.1347 12.2875 31.113 12.2793C31.017 12.2442 30.9221 12.206 30.8326 12.1637C30.7839 12.1404 30.7375 12.114 30.6902 12.0887C30.6282 12.0564 30.5681 12.0248 30.51 11.9888C30.4266 11.938 30.3474 11.882 30.269 11.8235C30.2479 11.807 30.2241 11.7928 30.2021 11.776C29.9993 11.6154 29.8109 11.4302 29.6378 11.218C28.954 10.3694 28.6013 9.24092 28.5544 7.75036C28.5537 7.72004 28.5533 7.69006 28.5517 7.65985C28.5512 7.62908 28.5491 7.59796 28.5491 7.56526C28.5477 7.48429 28.5519 7.40775 28.5544 7.32872C28.5559 7.20857 28.5577 7.08809 28.564 6.97214C28.5648 6.95477 28.5673 6.93808 28.5682 6.92013C28.6255 6.02756 28.8094 5.259 29.122 4.6174C29.1677 4.52246 29.2197 4.43264 29.2717 4.34361C29.2894 4.31317 29.3041 4.28104 29.323 4.25174C29.3717 4.17247 29.4255 4.09821 29.4779 4.0236C29.507 3.98102 29.5358 3.93741 29.5663 3.89698C29.7586 3.65124 29.9668 3.44207 30.1879 3.26764C30.1957 3.26151 30.2045 3.25697 30.2121 3.25118C30.3112 3.1743 30.4131 3.10571 30.5187 3.04177C30.5571 3.0194 30.5972 2.99919 30.6373 2.97784C30.7113 2.93685 30.7862 2.8979 30.8644 2.8636C30.9252 2.83601 30.9893 2.81216 31.0536 2.78877C31.113 2.76651 31.1709 2.74493 31.2321 2.72688C31.3084 2.70292 31.3886 2.68213 31.4695 2.66363C31.5202 2.65159 31.5729 2.63921 31.6246 2.62967C31.7117 2.61343 31.8014 2.60128 31.8918 2.58981C31.9433 2.58402 31.9952 2.57812 32.0496 2.57391C32.1398 2.56619 32.2314 2.56233 32.3253 2.56085C32.3995 2.55915 32.4719 2.55836 32.5488 2.55961C32.5957 2.56085 32.6425 2.56165 32.6903 2.56437C32.754 2.5671 32.8165 2.57153 32.8767 2.57618C32.9178 2.57993 32.9577 2.58323 32.9975 2.58663C33.0474 2.59231 33.0959 2.5989 33.1453 2.60469C33.2155 2.614 33.2833 2.62433 33.3507 2.63671C33.3612 2.63853 33.373 2.64125 33.3843 2.6425C33.5644 2.67759 33.7355 2.72324 33.8979 2.77911C33.9411 2.79501 33.9846 2.81193 34.0288 2.82931C34.0579 2.84168 34.0874 2.85247 34.1161 2.86496C34.372 2.97954 34.621 3.1358 34.8768 3.34463C34.9097 3.3728 34.9403 3.40107 34.9703 3.43173C35.0098 3.47125 35.0508 3.51452 35.0948 3.56346C35.1023 3.57198 35.1088 3.57993 35.1165 3.58833C35.1487 3.62683 35.1829 3.66816 35.2174 3.71279C35.2283 3.72778 35.2389 3.74254 35.2503 3.75776C35.2794 3.79739 35.309 3.83793 35.3384 3.88358C35.5174 4.16362 35.6535 4.48487 35.7419 4.84962H36.4926H38.7631C38.5477 3.34066 37.8704 2.15454 36.7299 1.29275C35.6455 0.472403 34.2569 0.0473538 32.5732 0.00783553C32.5702 0.00704062 32.5697 0.00704062 32.5669 0.00704062C32.4814 0.00499657 32.3992 0 32.3107 0C32.2979 0 32.2839 0.000454233 32.2703 0.000454233C32.2569 0.000454233 32.2459 0 32.2327 0C31.3659 0 30.5715 0.129343 29.8466 0.387461C29.8394 0.389846 29.8317 0.392231 29.8247 0.396092C29.8004 0.403586 29.7781 0.41233 29.7559 0.421529C28.8255 0.76209 28.018 1.30638 27.3355 2.05881C26.0918 3.43196 25.4688 5.26298 25.4688 7.55322C25.4688 7.56003 25.4695 7.56605 25.4695 7.57287C25.4695 7.57923 25.4688 7.58547 25.4688 7.59228C25.4688 7.61556 25.4705 7.63703 25.4705 7.65997C25.4835 9.91819 26.1039 11.728 27.3355 13.0865C28.018 13.8386 28.8255 14.3832 29.7559 14.7235C29.7781 14.7322 29.8004 14.7408 29.8247 14.7495C29.8326 14.7525 29.8399 14.7545 29.8466 14.7571C30.5715 15.0157 31.3659 15.146 32.2327 15.146C32.2459 15.146 32.2569 15.1443 32.2703 15.1443C32.2839 15.1443 32.2979 15.146 32.3107 15.146C34.1162 15.146 35.1413 14.6556 36.2818 13.7927C36.673 13.4974 37.0569 13.134 37.3981 12.726L37.3953 14.7398H39.8637V7.65997H39.6282Z" fill="white"/>
</g>
</svg>
