<svg width="143" height="47" viewBox="0 0 143 47" fill="none" xmlns="http://www.w3.org/2000/svg">
<g opacity="0.679392">
<path d="M25 11.9348H28.9237V23.7639C28.9237 25.2219 29.2139 26.287 29.7964 26.9573C30.3779 27.6268 31.301 27.9624 32.5655 27.9624C33.8484 27.9624 34.782 27.6292 35.3672 26.9636C35.9524 26.2977 36.2465 25.231 36.2465 23.7639V11.9348H40.132V24.1862C40.132 26.4987 39.4841 28.2739 38.1883 29.5113C36.8932 30.749 35.0281 31.368 32.5915 31.368C30.1369 31.368 28.2587 30.7511 26.9563 29.5174C25.651 28.2837 25 26.5069 25 24.1862V11.9348V11.9348Z" fill="white"/>
<path fill-rule="evenodd" clip-rule="evenodd" d="M42.71 16.9271V36.4236H46.339V29.1142C46.8006 29.8316 47.3797 30.3769 48.0769 30.7524C48.7728 31.1289 49.5665 31.3161 50.4562 31.3161C52.1382 31.3161 53.5152 30.6224 54.5848 29.2362C55.6528 27.849 56.1875 26.0415 56.1875 23.8145C56.1875 21.6127 55.6528 19.8355 54.5848 18.4827C53.5152 17.1305 52.1222 16.4542 50.4043 16.4542C49.5066 16.4542 48.7251 16.6413 48.064 17.0163C47.4018 17.392 46.8006 17.9898 46.2626 18.8096V16.9271H42.71ZM51.6867 20.7618C52.2165 21.5004 52.4814 22.5691 52.4814 23.9684C52.4814 25.248 52.2119 26.2553 51.6742 26.9894C51.1348 27.7233 50.3952 28.0903 49.455 28.0903C48.4626 28.0903 47.6969 27.7318 47.1533 27.0141C46.6101 26.298 46.3391 25.2818 46.3391 23.9684C46.3391 22.5603 46.5973 21.4891 47.1146 20.7551C47.6322 20.0218 48.3852 19.6542 49.378 19.6542C50.387 19.6542 51.156 20.0233 51.6867 20.7618Z" fill="white"/>
<path d="M79.8574 16.9273H83.3192V19.3087C83.8068 18.3527 84.375 17.6508 85.0255 17.2027C85.6746 16.7546 86.4485 16.5306 87.3461 16.5306C87.491 16.5306 87.6043 16.533 87.6859 16.5367C87.766 16.5413 87.8333 16.5476 87.884 16.5556L87.8972 20.3327H86.6543C85.6358 20.3327 84.8708 20.5972 84.3587 21.1264C83.8444 21.6552 83.5888 22.4408 83.5888 23.4815V30.8426H79.8574V16.9273Z" fill="white"/>
<path fill-rule="evenodd" clip-rule="evenodd" d="M96.0782 30.7723C96.8399 30.3923 97.4551 29.8398 97.9244 29.1142C97.9285 29.2824 97.9294 29.6514 97.9302 30.011C97.9311 30.3628 97.9319 30.7056 97.9357 30.8423H101.438V28.2693V20.3582C101.438 19.0869 100.919 18.1138 99.8808 17.4397C98.8418 16.7656 97.3481 16.4281 95.3993 16.4281C93.6214 16.4281 92.2272 16.8357 91.2185 17.6506C90.2102 18.4658 89.7051 19.5858 89.7051 21.0109V21.2676H93.1929V21.0622C93.1929 20.5079 93.3937 20.0812 93.7958 19.7824C94.1975 19.4836 94.7745 19.3342 95.5266 19.3342C96.3478 19.3342 96.933 19.4558 97.2844 19.6993C97.6342 19.9427 97.809 20.3458 97.809 20.9089C97.809 21.6175 97.0193 22.0739 95.4377 22.2793C94.8137 22.3559 94.3095 22.424 93.924 22.4834C92.2405 22.7395 91.0328 23.2135 90.3008 23.9048C89.5704 24.595 89.2041 25.5979 89.2041 26.9127C89.2041 28.3294 89.5704 29.4215 90.3008 30.1895C91.0329 30.9582 92.0732 31.3422 93.4243 31.3422C94.4332 31.3422 95.3182 31.1515 96.0782 30.7723ZM95.7634 24.6721C96.5549 24.5013 97.2546 24.276 97.8605 23.9942H97.8607V25.3121C97.8607 26.2931 97.5718 27.0683 96.9951 27.6351C96.4183 28.2028 95.6257 28.487 94.6173 28.487C94.0526 28.487 93.6032 28.3357 93.2698 28.0325C92.9373 27.7294 92.77 27.322 92.77 26.8096C92.77 26.3149 92.9006 25.9265 93.1602 25.6453C93.4228 25.363 93.8811 25.1284 94.5395 24.9408C94.5651 24.9321 94.9742 24.8425 95.7634 24.6721Z" fill="white"/>
<path fill-rule="evenodd" clip-rule="evenodd" d="M117.142 30.8426V11.9859H113.525V18.6555C113.064 17.9386 112.48 17.3919 111.775 17.0164C111.069 16.6413 110.268 16.454 109.37 16.454C107.685 16.454 106.312 17.1473 105.248 18.5341C104.183 19.9208 103.651 21.7243 103.651 23.9435C103.651 26.1442 104.183 27.9237 105.248 29.281C106.312 30.6376 107.703 31.3161 109.422 31.3161C110.329 31.3161 111.117 31.1256 111.788 30.7465C112.459 30.3666 113.064 29.7715 113.602 28.9607V30.8426H117.142ZM108.178 27.0087C107.649 26.2697 107.382 25.1968 107.382 23.7886C107.382 22.509 107.653 21.5041 108.191 20.7748C108.729 20.0448 109.465 19.6798 110.396 19.6798C111.388 19.6798 112.157 20.0364 112.704 20.7489C113.251 21.4611 113.525 22.4749 113.525 23.7886C113.525 25.2051 113.264 26.2806 112.743 27.0144C112.221 27.7486 111.464 28.1161 110.473 28.1161C109.473 28.1161 108.709 27.7462 108.178 27.0087Z" fill="white"/>
<path d="M76.9831 21.5481H67.9944V24.7876L72.0603 24.7919C71.7365 25.732 71.1403 26.566 70.3225 27.1415C69.7216 27.6033 68.9348 27.879 67.962 27.9278C67.9553 27.9278 67.9507 27.9278 67.944 27.9284C67.8419 27.9328 67.7351 27.9328 67.6278 27.9316C67.5441 27.9304 67.4608 27.925 67.3792 27.9197C67.2364 27.9116 67.0965 27.9012 66.9613 27.8845C66.9374 27.8818 66.9123 27.8776 66.8891 27.8738C66.7173 27.8502 66.5537 27.8201 66.3936 27.7832C66.3846 27.7816 66.373 27.7778 66.3624 27.7756C66.2012 27.7376 66.0477 27.6919 65.8985 27.64C65.87 27.6304 65.8416 27.6183 65.8131 27.6076C65.6872 27.5615 65.5628 27.5115 65.4453 27.4559C65.3815 27.4254 65.3206 27.3907 65.2585 27.3576C65.1772 27.3152 65.0983 27.2738 65.0222 27.2265C64.9127 27.1599 64.8088 27.0864 64.706 27.0096C64.6783 26.988 64.6471 26.9694 64.6183 26.9474C64.3522 26.7367 64.105 26.4938 63.8781 26.2154C62.981 25.1022 62.5183 23.6219 62.4569 21.6667C62.456 21.6269 62.4554 21.5876 62.4533 21.5479C62.4527 21.5076 62.4499 21.4668 62.4499 21.4239C62.4481 21.3176 62.4536 21.2172 62.4569 21.1136C62.4588 20.956 62.4612 20.7979 62.4694 20.6458C62.4704 20.623 62.4737 20.6011 62.4749 20.5776C62.5501 19.4068 62.7914 18.3986 63.2014 17.557C63.2614 17.4324 63.3296 17.3146 63.3978 17.1978C63.421 17.1579 63.4403 17.1157 63.4651 17.0773C63.5289 16.9733 63.5995 16.8759 63.6683 16.778C63.7065 16.7222 63.7442 16.665 63.7842 16.6119C64.0365 16.2896 64.3096 16.0152 64.5996 15.7864C64.6098 15.7783 64.6214 15.7724 64.6314 15.7648C64.7614 15.6639 64.8951 15.574 65.0335 15.4901C65.084 15.4608 65.1365 15.4342 65.1892 15.4062C65.2861 15.3525 65.3845 15.3014 65.487 15.2564C65.5668 15.2202 65.6508 15.1889 65.7352 15.1582C65.8131 15.129 65.8891 15.1007 65.9694 15.077C66.0695 15.0456 66.1747 15.0183 66.2808 14.9941C66.3473 14.9783 66.4164 14.962 66.4843 14.9495C66.5984 14.9282 66.7161 14.9123 66.8348 14.8972C66.9023 14.8896 66.9704 14.8819 67.0417 14.8764C67.16 14.8662 67.2801 14.8612 67.4034 14.8592C67.5007 14.857 67.5957 14.856 67.6966 14.8576C67.7581 14.8592 67.8195 14.8603 67.8822 14.8639C67.9657 14.8674 68.0477 14.8732 68.1267 14.8794C68.1806 14.8843 68.233 14.8886 68.2852 14.8931C68.3506 14.9005 68.4143 14.9091 68.479 14.9167C68.5711 14.929 68.66 14.9425 68.7485 14.9588C68.7622 14.9611 68.7777 14.9647 68.7925 14.9663C69.0288 15.0124 69.2533 15.0723 69.4663 15.1456C69.5229 15.1664 69.58 15.1886 69.6379 15.2114C69.6761 15.2276 69.7149 15.2418 69.7525 15.2582C70.0882 15.4085 70.4148 15.6134 70.7504 15.8874C70.7935 15.9243 70.8337 15.9614 70.873 16.0016C70.9248 16.0535 70.9785 16.1102 71.0363 16.1744C71.0461 16.1856 71.0546 16.196 71.0648 16.2071C71.107 16.2576 71.1519 16.3118 71.1971 16.3703C71.2115 16.39 71.2253 16.4093 71.2402 16.4293C71.2784 16.4813 71.3172 16.5345 71.3559 16.5944C71.5907 16.9617 71.7692 17.3831 71.8851 17.8616H72.8699H75.8482C75.5658 15.8822 74.6772 14.3263 73.1811 13.1958C71.7587 12.1197 69.9372 11.5621 67.7285 11.5103C67.7246 11.5092 67.724 11.5092 67.7203 11.5092C67.6081 11.5066 67.5004 11.5 67.3843 11.5C67.3674 11.5 67.3491 11.5006 67.3312 11.5006C67.3137 11.5006 67.2992 11.5 67.2819 11.5C66.1448 11.5 65.1028 11.6697 64.1519 12.0083C64.1425 12.0114 64.1323 12.0145 64.1232 12.0196C64.0913 12.0294 64.062 12.0409 64.0329 12.0529C62.8124 12.4997 61.7532 13.2137 60.858 14.2007C59.2265 16.0019 58.4092 18.4038 58.4092 21.4081C58.4092 21.417 58.4102 21.4249 58.4102 21.4338C58.4102 21.4422 58.4092 21.4504 58.4092 21.4593C58.4092 21.4898 58.4114 21.518 58.4114 21.5481C58.4286 24.5104 59.2424 26.8844 60.858 28.6664C61.7532 29.653 62.8124 30.3674 64.0329 30.8138C64.062 30.8252 64.0913 30.8365 64.1232 30.8479C64.1335 30.8518 64.1431 30.8545 64.1519 30.8579C65.1028 31.1971 66.1448 31.368 67.2819 31.368C67.2992 31.368 67.3137 31.3657 67.3312 31.3657C67.3491 31.3657 67.3674 31.368 67.3843 31.368C69.7527 31.368 71.0973 30.7248 72.5934 29.5928C73.1065 29.2055 73.6101 28.7288 74.0577 28.1936L74.054 30.8351H77.2919V21.5481H76.9831V21.5481Z" fill="white"/>
</g>
</svg>
